PathFileType	4	(X/Y/Z)	G:\マイドライブ\biomec\experimentalData\240725\SJ1.trc
DataRate	CameraRate	NumFrames	NumMarkers	Units	OrigDataRate	OrigDataStartFrame	OrigNumFrames
200.00	200.00	      7	52	mm	200.00	287	      2292
Frame#	Time	handR			wrRI			wrRO			elbRI			elbRO			shRF			shRU			shRB			handL			wrLI			wrLO			elbLI			elbLO			shLF			shLU			shLB			toeR			baRI			baRO			heelR			anRI			anRO			knRI			knRO			troR			toeL			baLI			baLO			heelL			anLI			anLO			knLI			knLO			troL			head			earR			earL			clav			c7			ribR			ribL			xiph			ASISR			ASISL			PSISR			PSISL			t8			t11			L1			L3			LS			COX			
		X1	Y1	Z1	X2	Y2	Z2	X3	Y3	Z3	X4	Y4	Z4	X5	Y5	Z5	X6	Y6	Z6	X7	Y7	Z7	X8	Y8	Z8	X9	Y9	Z9	X10	Y10	Z10	X11	Y11	Z11	X12	Y12	Z12	X13	Y13	Z13	X14	Y14	Z14	X15	Y15	Z15	X16	Y16	Z16	X17	Y17	Z17	X18	Y18	Z18	X19	Y19	Z19	X20	Y20	Z20	X21	Y21	Z21	X22	Y22	Z22	X23	Y23	Z23	X24	Y24	Z24	X25	Y25	Z25	X26	Y26	Z26	X27	Y27	Z27	X28	Y28	Z28	X29	Y29	Z29	X30	Y30	Z30	X31	Y31	Z31	X32	Y32	Z32	X33	Y33	Z33	X34	Y34	Z34	X35	Y35	Z35	X36	Y36	Z36	X37	Y37	Z37	X38	Y38	Z38	X39	Y39	Z39	X40	Y40	Z40	X41	Y41	Z41	X42	Y42	Z42	X43	Y43	Z43	X44	Y44	Z44	X45	Y45	Z45	X46	Y46	Z46	X47	Y47	Z47	X48	Y48	Z48	X49	Y49	Z49	X50	Y50	Z50	X51	Y51	Z51	X52	Y52	Z52	

287	1.430	477.49799	1286.83508	1050.50903	410.41867	1297.79016	1022.55511	437.61871	1358.95300	1047.09692	282.22745	1434.60339	1185.76904	253.21352	1361.79163	1204.71643	483.17493	1301.54822	1402.30481	436.21066	1401.37854	1404.76965	444.01404	1346.49841	1436.78687	771.53113	1326.16711	1053.48547	831.20697	1363.82385	1013.50073	778.62085	1407.77502	1046.32019	913.00995	1541.87561	1148.54407	974.30756	1486.72351	1159.69128	799.06885	1358.14954	1381.00708	826.54956	1412.54370	1411.23462	797.16046	1472.89539	1372.52002	388.77274	1240.89990	41.95117	439.33490	1321.56812	37.98367	320.18170	1348.54529	54.85778	416.98026	1522.46179	86.86612	458.92685	1421.67957	133.86891	363.68814	1441.82947	142.36980	532.02899	1276.89734	463.55923	427.10797	1259.67200	476.80548	442.68399	1312.52063	871.90515	704.91162	1247.01843	54.34602	652.10785	1315.06616	54.37965	761.92377	1349.88513	50.24509	684.50897	1531.65173	43.08929	650.98016	1437.17139	133.63701	737.58783	1465.11902	108.86250	657.19830	1377.99646	480.20374	765.20276	1368.50159	480.15222	784.40399	1352.58435	866.09375	694.75757	1261.64478	1688.66382	591.07013	1249.72913	1531.19336	742.75098	1282.53906	1507.90930	647.60815	1300.90833	1380.31482	638.83966	1410.15369	1474.00842	517.42719	1303.82043	1101.82959	739.50439	1333.92639	1093.78809	641.08698	1277.24854	1225.73999	516.77264	1264.26965	968.64319	735.01007	1295.82117	977.13702	543.05896	1444.30164	990.21350	664.75732	1455.59033	995.70361	613.15253	1494.25244	1260.97241	606.89496	1476.83337	1130.96887	608.19409	1458.99622	1072.12817	603.67035	1452.95898	1023.67303	604.53857	1461.66150	986.24268	603.22394	1479.08691	883.45337	
288	1.435	478.31558	1285.94714	1050.93958	411.17722	1296.81213	1023.27161	438.46188	1358.11182	1047.59009	282.70779	1432.94250	1186.86682	254.41464	1359.95740	1205.78979	484.88110	1300.52942	1402.68079	437.53961	1400.23523	1405.33777	445.78174	1345.33093	1437.22437	772.44263	1325.90796	1053.31116	831.84283	1363.60803	1013.04938	779.28931	1407.56299	1045.96301	914.07617	1541.67932	1147.72278	975.03644	1486.87659	1158.92407	800.60272	1357.86829	1380.62244	827.99518	1412.27820	1410.94714	798.32520	1472.62402	1372.30188	388.76913	1240.04053	41.52246	439.47800	1321.02527	38.10715	320.52722	1348.28943	55.89554	418.92798	1521.32336	90.95899	459.09232	1416.31543	135.00987	364.96738	1439.26709	144.88380	533.77277	1271.40112	464.41388	428.56992	1254.45471	477.60870	443.52350	1310.88928	872.36407	704.90277	1246.98193	54.26093	652.09045	1314.87610	54.36317	761.89948	1349.86865	50.25863	684.50781	1531.63770	43.12139	651.00031	1436.82568	133.63307	737.60352	1465.03186	108.95950	657.40283	1376.59741	479.98956	765.39429	1367.17053	480.06427	784.92969	1352.06873	865.82623	697.27264	1260.45935	1688.32495	593.11261	1248.89502	1531.01941	744.63696	1281.91357	1507.39832	649.47650	1300.37219	1380.38916	640.48743	1409.52759	1474.17053	518.40021	1302.78748	1102.33484	740.41840	1333.66858	1093.62427	642.82733	1276.89148	1225.72034	518.02521	1262.98706	969.10657	735.83527	1295.30542	977.15515	543.61951	1443.34265	990.42639	665.30127	1455.04248	995.54199	614.06036	1493.71484	1261.11462	607.52502	1476.24390	1131.08911	609.16357	1458.19019	1072.47583	604.37061	1452.23083	1023.85468	605.13110	1460.36743	985.57477	603.55005	1478.12720	883.48798	
289	1.440	479.26010	1284.94556	1051.35986	411.90573	1296.10010	1023.76855	439.29636	1357.32385	1048.45325	283.37302	1431.51428	1187.71777	255.31812	1358.22058	1206.74329	486.56296	1299.40881	1403.08801	439.15729	1399.00623	1405.95471	447.44131	1344.28406	1437.70703	773.36353	1325.43164	1053.15955	832.64661	1363.50537	1012.61243	779.90131	1407.21924	1045.69080	914.19574	1542.25305	1148.41833	975.58563	1486.94739	1158.27319	801.74634	1357.46948	1380.45508	829.25909	1412.20166	1410.71167	799.46820	1472.43518	1372.10168	388.20456	1240.07007	40.49403	439.81979	1320.16394	38.28485	321.16879	1347.63757	57.32772	421.04199	1519.13953	94.75315	460.22498	1413.70056	137.50150	366.16409	1436.90479	147.59634	535.02374	1266.52002	465.23944	430.10190	1248.91821	478.46747	444.02814	1309.35449	872.89734	704.91974	1246.97559	54.16652	652.07996	1314.81641	54.32436	761.97467	1349.84424	50.20630	684.47858	1531.62048	43.17164	650.97540	1436.72083	133.65405	737.58948	1464.97388	108.96410	657.57800	1375.02039	479.86102	765.62738	1365.75891	479.94751	785.09027	1351.38721	865.36810	699.57672	1259.31641	1687.94250	595.20923	1247.75586	1530.94568	746.61340	1281.47888	1506.94275	651.18524	1299.93921	1380.29321	641.83002	1408.85901	1474.25134	519.24139	1301.86267	1102.84753	741.32025	1333.34253	1093.50476	644.19897	1276.24194	1225.72559	518.92853	1262.15479	969.63226	736.61401	1294.84949	977.16064	544.25079	1442.33240	990.65753	665.79315	1454.42542	995.44946	614.91284	1493.07800	1261.30920	608.47205	1475.34778	1131.08203	609.76880	1457.66150	1072.70740	605.13751	1451.35510	1023.83899	605.69885	1459.51563	985.56476	603.78918	1477.38013	883.56500	
290	1.445	481.51001	1285.09521	1052.01550	412.84830	1295.09192	1024.32373	439.80630	1356.66016	1049.10242	283.77301	1430.02942	1188.60779	256.51505	1356.42676	1207.63049	488.16742	1298.34045	1403.63318	440.50156	1397.83154	1406.56384	449.08331	1342.98486	1438.35742	774.27118	1324.92273	1052.92688	833.43915	1363.23462	1012.20972	780.44153	1406.92358	1045.41028	914.64258	1542.23767	1147.97534	976.13385	1487.04480	1157.78247	803.34875	1357.45691	1380.17212	830.29462	1413.31970	1410.27710	800.58771	1472.33704	1371.80554	387.91205	1239.90857	39.77219	440.23328	1319.15771	38.66607	321.76886	1347.19482	58.72676	422.48926	1517.40845	98.86445	461.22238	1411.15906	139.55774	367.17508	1434.54370	150.63062	536.29413	1261.86902	466.07895	431.53903	1243.52734	479.34177	444.81030	1307.56897	873.40808	704.89288	1246.94080	54.06892	652.09949	1314.79431	54.26944	761.92334	1349.84509	50.21883	684.46539	1531.60815	43.20201	650.95605	1436.61304	133.69878	737.52679	1464.91443	109.03389	657.93555	1373.44019	479.65271	765.72833	1364.56738	479.83710	785.67383	1350.77710	865.15790	702.30328	1258.28467	1687.58032	597.08093	1246.71692	1530.91516	748.41852	1280.93494	1506.55774	652.53418	1299.42932	1380.47192	643.72107	1408.16309	1474.58496	520.38196	1300.99829	1103.23291	742.28375	1332.91309	1093.56555	645.23932	1275.47156	1225.97375	519.77948	1261.29224	970.27002	737.60736	1294.20081	977.17786	544.64331	1441.49829	990.78595	666.49475	1453.62842	995.42365	615.71277	1492.40173	1261.40881	609.26312	1474.60327	1131.21130	610.61853	1456.80603	1072.79907	605.61938	1450.53210	1023.88788	606.17468	1458.53516	985.70917	603.99237	1476.29077	883.56921	
291	1.450	482.23459	1284.22815	1052.52563	413.62497	1294.00977	1025.03528	440.43463	1355.64929	1049.91638	284.47986	1428.79004	1189.60840	257.47388	1354.84790	1208.69238	489.81558	1297.22778	1404.01147	441.88419	1396.80896	1407.16345	450.69495	1341.88074	1438.94763	775.11353	1324.67554	1052.77466	834.05652	1362.93933	1011.83398	780.73090	1407.41748	1044.65723	915.30988	1542.22559	1147.31995	976.99750	1486.86609	1157.33557	804.78857	1357.23657	1379.92224	831.58691	1413.05627	1410.06555	801.59808	1472.30701	1371.62585	387.95004	1239.45264	39.15774	440.53729	1318.49524	39.05350	322.56345	1346.39673	60.52148	423.67990	1515.37341	102.52917	462.12711	1408.40588	141.83705	368.23792	1432.07642	153.47595	538.52319	1255.20178	467.29260	432.87662	1237.83472	480.43781	445.28329	1305.90918	873.93842	704.89105	1246.93311	53.96987	652.10730	1314.77039	54.22621	761.92914	1349.76282	50.19384	684.49939	1531.58508	43.23900	650.93469	1436.49902	133.71182	737.50793	1464.83557	109.08707	658.26062	1371.64954	479.55386	765.75323	1363.58508	479.67114	786.10309	1350.18848	864.98431	704.43512	1257.13525	1687.23083	599.16461	1245.82446	1530.81934	750.36035	1280.51477	1506.14319	654.37762	1298.83105	1380.55273	644.90259	1407.71460	1474.55347	521.37494	1300.17297	1103.69067	743.10834	1332.56030	1093.52380	646.97455	1274.91211	1226.00366	520.71283	1260.25818	970.83301	738.52936	1293.57458	977.12402	545.22662	1440.49097	990.94324	667.08887	1452.98840	995.38684	616.67065	1491.53589	1261.50842	610.03613	1473.91968	1131.39294	611.27203	1455.87390	1072.85046	606.22327	1449.75049	1023.97113	606.53754	1457.79736	985.82788	604.20844	1475.19763	883.62268	
292	1.455	483.20663	1282.95190	1053.00183	414.50671	1293.04492	1025.70276	441.23550	1354.48486	1050.32336	285.17334	1427.23706	1190.52759	258.55502	1353.09473	1209.70361	491.52078	1296.07275	1404.40686	443.48270	1395.56982	1407.70520	452.51248	1340.81433	1439.46167	776.03333	1324.28394	1052.70093	834.61975	1362.65442	1011.59814	781.46960	1406.86841	1044.44629	915.71448	1542.25586	1146.71667	977.62073	1487.21362	1156.54333	805.87323	1356.86877	1379.69604	832.94019	1412.72986	1409.87354	802.52008	1472.20947	1371.44751	388.11746	1238.91589	38.54853	440.81918	1317.94067	39.42190	323.31924	1345.58228	62.08218	425.36612	1513.19019	106.76003	463.28842	1405.48657	143.91341	369.63922	1429.11340	156.48387	540.03241	1249.76855	468.14285	434.30325	1232.29724	481.43777	446.14264	1303.93384	874.34930	704.86688	1246.92212	53.88488	652.13080	1314.73621	54.17963	761.99609	1349.79065	50.21216	684.46698	1531.59290	43.25536	650.93335	1436.37952	133.71100	737.79529	1465.46045	109.12507	658.56036	1370.14697	479.42554	765.86511	1362.53003	479.46420	786.45319	1349.72717	864.78925	706.94965	1256.22217	1686.90515	601.12610	1244.73645	1530.63379	752.19653	1279.91650	1505.61792	655.90369	1298.23193	1380.53528	646.68390	1406.72021	1474.72656	522.23511	1299.06226	1104.22217	744.04718	1332.12549	1093.39661	648.04199	1274.27881	1226.02222	521.69849	1259.25488	971.23230	739.20923	1293.10669	976.99817	545.73224	1439.43347	991.14740	667.54700	1452.41736	995.29950	617.29858	1490.93433	1261.56775	610.65656	1473.10828	1131.43811	611.88074	1455.07947	1072.92346	606.90460	1448.91077	1024.15588	606.98633	1457.02332	985.89099	604.28589	1474.36890	883.76526	
293	1.460	484.13120	1282.27832	1053.63806	415.41034	1291.82324	1026.46826	442.10699	1353.40234	1050.94385	285.92227	1425.88745	1191.37256	259.47455	1351.57861	1210.62488	493.01230	1295.09558	1404.89490	444.84335	1394.37170	1408.30676	454.06155	1339.52319	1439.92749	776.95288	1324.04211	1053.49475	835.39313	1362.26660	1011.41742	782.13031	1406.45801	1044.27124	916.07428	1542.27319	1146.14514	978.04218	1487.33594	1155.99963	807.51544	1356.88782	1379.41699	834.37885	1412.42627	1409.60144	803.70355	1472.02747	1371.20569	388.21915	1238.35962	38.00202	441.09247	1317.36243	39.79280	324.08578	1345.09009	64.44736	426.92798	1510.95703	110.72604	464.47214	1402.59314	146.32663	370.87036	1426.61755	159.59412	541.56274	1244.53394	469.39456	435.74435	1226.82007	482.45645	446.74493	1302.13611	874.83398	704.85681	1246.88489	53.78065	652.14966	1314.70349	54.09978	761.99255	1349.77136	50.17173	684.47064	1531.57788	43.31250	650.88678	1436.27881	133.74225	737.79565	1465.38635	109.15894	657.65948	1369.84045	479.52673	766.07495	1360.98865	479.27667	787.08783	1349.21851	864.85413	709.21210	1255.12195	1686.53455	603.11713	1243.78284	1530.51489	754.01398	1279.47253	1505.26404	657.44257	1297.59167	1380.67407	647.67407	1406.33032	1474.73315	523.09113	1298.14575	1104.81653	744.96136	1331.52136	1093.21899	649.38983	1273.51245	1226.05920	522.84918	1258.14905	971.65924	740.01074	1292.68713	976.95844	546.16449	1438.40442	991.40283	668.01312	1451.58398	995.21375	618.00629	1490.09888	1261.62988	611.43933	1472.03613	1131.43213	612.54572	1454.28674	1073.07056	607.48743	1447.93201	1024.28613	607.39581	1456.03467	985.94183	604.39319	1473.15234	883.69092	
